M48
; DRILL file {KiCad (5.1.6)-1} date 05/30/21 03:29:38
; FORMAT={-:-/ absolute / inch / decimal}
; #@! TF.CreationDate,2021-05-30T03:29:38+07:00
; #@! TF.GenerationSoftware,Kicad,Pcbnew,(5.1.6)-1
; #@! TF.FileFunction,Plated,1,2,PTH
FMAT,2
INCH
T1C0.0157
T2C0.0256
T3C0.0315
T4C0.0433
T5C0.0579
T6C0.0984
%
G90
G05
T1
X1.68Y3.68
X1.7Y3.82
X2.44Y2.7
X2.6Y2.7
X3.08Y3.3928
X3.96Y2.7
X4.1Y2.7
X4.56Y3.42
X5.38Y2.7
X5.56Y2.7
X6.08Y3.44
X6.2Y2.7
X6.32Y2.7
X7.44Y3.44
X7.78Y2.98
X7.88Y2.48
X7.9Y2.42
X7.92Y2.98
X8.06Y1.72
X8.08Y2.42
X8.2Y1.72
X9.98Y3.5
T2
X1.04Y2.84
X1.09Y2.84
X1.14Y2.84
X1.19Y2.84
X1.24Y2.84
T3
X1.28Y1.6
X1.28Y1.3
X2.7Y3.08
X2.7Y2.78
X8.42Y0.84
X8.42Y0.54
X4.94Y3.1
X4.94Y2.8
X8.88Y2.34
X8.88Y2.04
X7.94Y3.08
X7.94Y2.78
X4.0Y1.6
X4.0Y1.3
X7.38Y2.34
X7.38Y2.04
X4.56Y3.84
X4.56Y3.54
X4.38Y2.34
X4.38Y2.04
X10.32Y3.32
X10.32Y3.02
X2.88Y2.34
X2.88Y2.04
X9.62Y2.56
X9.92Y2.56
X3.64Y2.34
X3.64Y2.04
X6.44Y3.08
X6.44Y2.78
X7.76Y1.58
X7.76Y1.28
X9.82Y3.84
X9.82Y3.54
X9.6Y1.6
X9.6Y1.3
X3.82Y3.84
X3.82Y3.54
X6.64Y2.34
X6.64Y2.04
X3.44Y3.08
X3.44Y2.78
X5.14Y2.34
X5.14Y2.04
X10.46Y3.32
X10.46Y3.02
X6.26Y1.6
X6.26Y1.3
X4.2Y3.08
X4.2Y2.78
X2.88Y0.84
X2.88Y0.54
X9.08Y3.84
X9.08Y3.54
X3.26Y1.6
X3.26Y1.3
X2.32Y3.84
X2.32Y3.54
X10.66Y1.58
X10.66Y1.28
X10.3Y0.84
X10.3Y0.54
X2.14Y2.34
X2.14Y2.04
X4.9Y0.76
X4.9Y0.46
X7.2Y3.08
X7.2Y2.78
X5.5Y1.6
X5.5Y1.3
X0.38Y3.32
X0.68Y3.32
X8.14Y2.34
X8.14Y2.04
X7.56Y3.84
X7.56Y3.54
X1.12Y3.32
X1.42Y3.32
X9.36Y0.84
X9.36Y0.54
X1.1Y2.34
X1.1Y2.04
X7.0Y1.6
X7.0Y1.3
X1.94Y3.1
X1.94Y2.8
X5.88Y2.34
X5.88Y2.04
X8.32Y3.84
X8.32Y3.54
X6.82Y3.84
X6.82Y3.54
X9.64Y2.34
X9.64Y2.04
X9.26Y1.6
X9.26Y1.3
X1.94Y0.84
X1.94Y0.54
X10.52Y2.56
X10.82Y2.56
X4.76Y1.6
X4.76Y1.3
X9.44Y3.1
X9.44Y2.8
X10.46Y0.84
X10.46Y0.54
X3.06Y3.84
X3.06Y3.54
X2.5Y1.6
X2.5Y1.3
X0.34Y3.1
X0.34Y2.8
X1.0Y0.84
X1.0Y0.54
X5.7Y3.1
X5.7Y2.8
X10.18Y2.36
X10.18Y2.06
X8.7Y3.1
X8.7Y2.8
X6.06Y3.84
X6.06Y3.54
X8.5Y1.6
X8.5Y1.3
X5.32Y3.84
X5.32Y3.54
T4
X6.67Y3.2
X6.67Y2.6
X6.77Y3.2
X6.77Y2.6
X6.87Y3.2
X6.87Y2.6
X6.97Y3.2
X6.97Y2.6
X7.07Y3.2
X7.07Y2.6
X7.17Y3.2
X7.17Y2.6
X7.27Y3.2
X7.27Y2.6
X7.37Y3.2
X7.37Y2.6
X7.47Y3.2
X7.47Y2.6
X7.57Y3.2
X7.57Y2.6
X7.67Y3.2
X7.67Y2.6
X7.77Y3.2
X7.77Y2.6
T5
X10.4612Y3.74
X10.7112Y3.84
X10.3673Y2.24
X10.6173Y2.34
X5.1176Y0.74
X5.3676Y0.84
X7.0862Y3.74
X7.3362Y3.84
X9.1485Y2.24
X9.3985Y2.34
X5.5862Y0.74
X5.8362Y0.84
X2.5862Y3.74
X2.8362Y3.84
X0.5237Y0.74
X0.7737Y0.84
X7.6482Y2.24
X7.8982Y2.34
X6.5237Y1.49
X6.7737Y1.59
X3.8974Y2.24
X4.1474Y2.34
X3.1472Y2.24
X3.3972Y2.34
X8.7737Y1.49
X9.0237Y1.59
X5.5862Y3.74
X5.8362Y3.84
X4.8362Y3.74
X5.0862Y3.84
X6.3362Y3.74
X6.5862Y3.84
X10.6488Y0.74
X10.8988Y0.84
X1.8362Y3.74
X2.0862Y3.84
X8.9614Y2.9901
X9.2114Y3.0901
X6.898Y2.24
X7.148Y2.34
X0.805Y1.49
X1.055Y1.59
X0.3862Y3.44
X0.6362Y3.54
X5.0237Y1.49
X5.2737Y1.59
X1.647Y2.24
X1.897Y2.34
X10.8363Y1.49
X11.0863Y1.59
X2.0237Y1.49
X2.2737Y1.59
X3.7112Y2.9901
X3.9612Y3.0901
X1.1362Y3.44
X1.3862Y3.54
X10.7426Y0.74
X10.9926Y0.84
X9.7114Y2.9901
X9.9614Y3.0901
X5.7737Y1.49
X6.0237Y1.59
X2.3988Y0.74
X2.6488Y0.84
X2.9612Y2.9901
X3.2112Y3.0901
X2.7737Y1.49
X3.0237Y1.59
X8.2114Y2.9901
X8.4614Y3.0901
X5.2112Y2.9901
X5.4612Y3.0901
X1.3676Y0.74
X1.6176Y0.84
X8.7737Y0.74
X9.0237Y0.84
X0.5237Y2.9901
X0.7737Y3.0901
X6.7114Y2.9901
X6.9614Y3.0901
X6.1479Y2.24
X6.3979Y2.34
X2.305Y0.74
X2.555Y0.84
X10.6489Y2.9901
X10.8989Y3.0901
X1.4612Y0.74
X1.7112Y0.84
X4.0862Y3.74
X4.3362Y3.84
X10.0862Y3.74
X10.3362Y3.84
X7.93Y0.74
X8.18Y0.84
X9.3362Y3.74
X9.5862Y3.84
X4.6476Y2.24
X4.8976Y2.34
X7.2737Y1.49
X7.5237Y1.59
X0.6175Y2.24
X0.8675Y2.34
X2.2112Y2.9901
X2.4612Y3.0901
X2.3971Y2.24
X2.6471Y2.34
X7.4614Y2.9901
X7.7114Y3.0901
X5.9612Y2.9901
X6.2112Y3.0901
X10.18Y1.49
X10.43Y1.59
X7.8362Y3.74
X8.0862Y3.84
X8.8676Y0.74
X9.1176Y0.84
X8.5862Y3.74
X8.8362Y3.84
X5.3977Y2.24
X5.6477Y2.34
X9.8051Y0.74
X10.0551Y0.84
X4.2737Y1.49
X4.5237Y1.59
X8.0237Y1.49
X8.2737Y1.59
X10.8362Y3.74
X11.0862Y3.84
X1.4612Y2.9901
X1.7112Y3.0901
X4.4612Y2.9901
X4.7112Y3.0901
X9.805Y1.49
X10.055Y1.59
X8.3983Y2.24
X8.6483Y2.34
X3.3362Y3.74
X3.5862Y3.84
X0.43Y0.74
X0.68Y0.84
X9.7113Y0.74
X9.9613Y0.84
X3.5237Y1.49
X3.7737Y1.59
T6
G00X11.1114Y1.78
M15
G01X11.2886Y1.78
M16
G05
G00X0.1514Y1.78
M15
G01X0.3286Y1.78
M16
G05
T0
M30
