M48
; DRILL file {KiCad (5.1.6)-1} date 05/30/21 03:29:39
; FORMAT={-:-/ absolute / inch / decimal}
; #@! TF.CreationDate,2021-05-30T03:29:39+07:00
; #@! TF.GenerationSoftware,Kicad,Pcbnew,(5.1.6)-1
; #@! TF.FileFunction,NonPlated,1,2,NPTH
FMAT,2
INCH
T1C0.0354
T2C0.0689
T3C0.1200
T4C0.1570
%
G90
G05
T1
X0.7734Y3.84
X0.9466Y3.84
T2
X4.5976Y2.14
X4.9976Y2.14
X7.2237Y1.39
X7.6237Y1.39
X0.5675Y2.14
X0.9675Y2.14
X2.1612Y2.8901
X2.5612Y2.8901
X2.3471Y2.14
X2.7471Y2.14
X7.4114Y2.8901
X7.8114Y2.8901
X5.9112Y2.8901
X6.3112Y2.8901
X10.13Y1.39
X10.53Y1.39
X7.7862Y3.64
X8.1862Y3.64
X8.8176Y0.64
X9.2176Y0.64
X8.5362Y3.64
X8.9362Y3.64
X5.3477Y2.14
X5.7477Y2.14
X9.7551Y0.64
X10.1551Y0.64
X4.2237Y1.39
X4.6237Y1.39
X7.9737Y1.39
X8.3737Y1.39
X10.7862Y3.64
X11.1862Y3.64
X1.4112Y2.8901
X1.8112Y2.8901
X4.4112Y2.8901
X4.8112Y2.8901
X9.755Y1.39
X10.155Y1.39
X8.3483Y2.14
X8.7483Y2.14
X3.2862Y3.64
X3.6862Y3.64
X0.38Y0.64
X0.78Y0.64
X9.6613Y0.64
X10.0613Y0.64
X3.4737Y1.39
X3.8737Y1.39
X10.4112Y3.64
X10.8112Y3.64
X10.3173Y2.14
X10.7173Y2.14
X5.0676Y0.64
X5.4676Y0.64
X7.0362Y3.64
X7.4362Y3.64
X9.0985Y2.14
X9.4985Y2.14
X5.5362Y0.64
X5.9362Y0.64
X2.5362Y3.64
X2.9362Y3.64
X0.4737Y0.64
X0.8737Y0.64
X7.5982Y2.14
X7.9982Y2.14
X6.4737Y1.39
X6.8737Y1.39
X3.8474Y2.14
X4.2474Y2.14
X3.0972Y2.14
X3.4972Y2.14
X8.7237Y1.39
X9.1237Y1.39
X5.5362Y3.64
X5.9362Y3.64
X4.7862Y3.64
X5.1862Y3.64
X6.2862Y3.64
X6.6862Y3.64
X10.5988Y0.64
X10.9988Y0.64
X1.7862Y3.64
X2.1862Y3.64
X8.9114Y2.8901
X9.3114Y2.8901
X6.848Y2.14
X7.248Y2.14
X0.755Y1.39
X1.155Y1.39
X0.2862Y3.64
X0.6862Y3.64
X4.9737Y1.39
X5.3737Y1.39
X1.597Y2.14
X1.997Y2.14
X10.7863Y1.39
X11.1863Y1.39
X1.9737Y1.39
X2.3737Y1.39
X3.6612Y2.8901
X4.0612Y2.8901
X1.0362Y3.64
X1.4362Y3.64
X10.6926Y0.64
X11.0926Y0.64
X9.6614Y2.8901
X10.0614Y2.8901
X5.7237Y1.39
X6.1237Y1.39
X2.3488Y0.64
X2.7488Y0.64
X2.9112Y2.8901
X3.3112Y2.8901
X2.7237Y1.39
X3.1237Y1.39
X8.1614Y2.8901
X8.5614Y2.8901
X5.1612Y2.8901
X5.5612Y2.8901
X1.3176Y0.64
X1.7176Y0.64
X8.7237Y0.64
X9.1237Y0.64
X0.4737Y2.8901
X0.8737Y2.8901
X6.6614Y2.8901
X7.0614Y2.8901
X6.0979Y2.14
X6.4979Y2.14
X2.255Y0.64
X2.655Y0.64
X10.5989Y2.8901
X10.9989Y2.8901
X1.4112Y0.64
X1.8112Y0.64
X4.0362Y3.64
X4.4362Y3.64
X10.0362Y3.64
X10.4362Y3.64
X7.88Y0.64
X8.28Y0.64
X9.2862Y3.64
X9.6862Y3.64
T3
X9.8613Y1.665
X10.7988Y1.665
X10.1424Y3.915
X11.0799Y3.915
X10.0485Y1.865
X10.986Y1.865
X3.2991Y0.365
X7.2361Y0.365
X3.4862Y0.365
X7.9862Y0.365
X0.4862Y1.665
X1.4237Y1.665
T4
X7.6114Y2.8901
X6.1112Y2.8901
X9.8613Y1.065
X10.33Y1.39
X10.7988Y1.065
X7.9862Y3.64
X9.0176Y0.64
X8.7362Y3.64
X5.5477Y2.14
X9.9551Y0.64
X4.4237Y1.39
X8.1737Y1.39
X10.9862Y3.64
X1.6112Y2.8901
X4.6112Y2.8901
X9.955Y1.39
X8.5483Y2.14
X3.4862Y3.64
X0.58Y0.64
X9.8613Y0.64
X3.6737Y1.39
X10.1424Y3.315
X10.6112Y3.64
X11.0799Y3.315
X10.0485Y2.465
X10.5173Y2.14
X10.986Y2.465
X3.2991Y0.965
X5.2676Y0.64
X7.2361Y0.965
X7.2362Y3.64
X9.2985Y2.14
X3.4862Y0.965
X5.7362Y0.64
X7.9862Y0.965
X2.7362Y3.64
X0.6737Y0.64
X7.7982Y2.14
X6.6737Y1.39
X4.0474Y2.14
X3.2972Y2.14
X8.9237Y1.39
X5.7362Y3.64
X4.9862Y3.64
X6.4862Y3.64
X10.7988Y0.64
X1.9862Y3.64
X9.1114Y2.8901
X7.048Y2.14
X0.4862Y1.065
X0.955Y1.39
X1.4237Y1.065
X0.4862Y3.64
X5.1737Y1.39
X1.797Y2.14
X10.9863Y1.39
X2.1737Y1.39
X3.8612Y2.8901
X1.2362Y3.64
X10.8926Y0.64
X9.8614Y2.8901
X5.9237Y1.39
X2.5488Y0.64
X3.1112Y2.8901
X2.9237Y1.39
X8.3614Y2.8901
X5.3612Y2.8901
X1.5176Y0.64
X8.9237Y0.64
X0.6737Y2.8901
X6.8614Y2.8901
X6.2979Y2.14
X2.455Y0.64
X10.7989Y2.8901
X1.6112Y0.64
X4.2362Y3.64
X10.2362Y3.64
X8.08Y0.64
X9.4862Y3.64
X4.7976Y2.14
X7.4237Y1.39
X0.7675Y2.14
X2.3612Y2.8901
X2.5471Y2.14
T0
M30
