G04 #@! TF.GenerationSoftware,KiCad,Pcbnew,(5.1.6)-1*
G04 #@! TF.CreationDate,2021-05-30T03:28:52+07:00*
G04 #@! TF.ProjectId,LK60 v2,4c4b3630-2076-4322-9e6b-696361645f70,rev?*
G04 #@! TF.SameCoordinates,Original*
G04 #@! TF.FileFunction,Copper,L2,Bot*
G04 #@! TF.FilePolarity,Positive*
%FSLAX46Y46*%
G04 Gerber Fmt 4.6, Leading zero omitted, Abs format (unit mm)*
G04 Created by KiCad (PCBNEW (5.1.6)-1) date 2021-05-30 03:28:52*
%MOMM*%
%LPD*%
G01*
G04 APERTURE LIST*
G04 #@! TA.AperFunction,ComponentPad*
%ADD10O,7.000000X4.000000*%
G04 #@! TD*
G04 #@! TA.AperFunction,ComponentPad*
%ADD11O,1.000000X1.000000*%
G04 #@! TD*
G04 #@! TA.AperFunction,ComponentPad*
%ADD12R,1.000000X1.000000*%
G04 #@! TD*
G04 #@! TA.AperFunction,SMDPad,CuDef*
%ADD13R,0.500000X2.500000*%
G04 #@! TD*
G04 #@! TA.AperFunction,SMDPad,CuDef*
%ADD14R,2.000000X2.500000*%
G04 #@! TD*
G04 #@! TA.AperFunction,ComponentPad*
%ADD15C,1.600000*%
G04 #@! TD*
G04 #@! TA.AperFunction,ComponentPad*
%ADD16R,1.600000X1.600000*%
G04 #@! TD*
G04 #@! TA.AperFunction,ComponentPad*
%ADD17C,2.250000*%
G04 #@! TD*
G04 #@! TA.AperFunction,ComponentPad*
%ADD18O,1.600000X1.600000*%
G04 #@! TD*
G04 #@! TA.AperFunction,ViaPad*
%ADD19C,0.800000*%
G04 #@! TD*
G04 #@! TA.AperFunction,Conductor*
%ADD20C,0.250000*%
G04 #@! TD*
G04 APERTURE END LIST*
D10*
G04 #@! TO.P,REF\u002A\u002A,1*
G04 #@! TO.N,N/C*
X284480000Y45212000D03*
G04 #@! TD*
G04 #@! TO.P,REF\u002A\u002A,1*
G04 #@! TO.N,N/C*
X6096000Y45212000D03*
G04 #@! TD*
D11*
G04 #@! TO.P,Pin_header1,5*
G04 #@! TO.N,Ground*
X31496000Y72136000D03*
G04 #@! TO.P,Pin_header1,4*
G04 #@! TO.N,Net-(J1-Pad4)*
X30226000Y72136000D03*
G04 #@! TO.P,Pin_header1,3*
G04 #@! TO.N,Net-(J1-Pad3)*
X28956000Y72136000D03*
G04 #@! TO.P,Pin_header1,2*
G04 #@! TO.N,Net-(J1-Pad2)*
X27686000Y72136000D03*
D12*
G04 #@! TO.P,Pin_header1,1*
G04 #@! TO.N,Net-(J1-Pad1)*
X26416000Y72136000D03*
G04 #@! TD*
D13*
G04 #@! TO.P,J1,5*
G04 #@! TO.N,Ground*
X23444000Y94936000D03*
G04 #@! TO.P,J1,4*
G04 #@! TO.N,Net-(J1-Pad4)*
X22644000Y94936000D03*
G04 #@! TO.P,J1,3*
G04 #@! TO.N,Net-(J1-Pad3)*
X21844000Y94936000D03*
G04 #@! TO.P,J1,2*
G04 #@! TO.N,Net-(J1-Pad2)*
X21044000Y94936000D03*
G04 #@! TO.P,J1,1*
G04 #@! TO.N,Net-(J1-Pad1)*
X20244000Y94936000D03*
D14*
G04 #@! TO.P,J1,6*
G04 #@! TO.N,Ground*
X26244000Y94936000D03*
X17444000Y94936000D03*
X26244000Y100436000D03*
X17444000Y100436000D03*
G04 #@! TD*
D15*
G04 #@! TO.P,U1,24*
G04 #@! TO.N,Net-(U1-Pad24)*
X169418000Y66040000D03*
G04 #@! TO.P,U1,23*
G04 #@! TO.N,Ground*
X171958000Y66040000D03*
G04 #@! TO.P,U1,22*
G04 #@! TO.N,Net-(U1-Pad22)*
X174498000Y66040000D03*
G04 #@! TO.P,U1,21*
G04 #@! TO.N,Net-(U1-Pad21)*
X177038000Y66040000D03*
G04 #@! TO.P,U1,20*
G04 #@! TO.N,Col5*
X179578000Y66040000D03*
G04 #@! TO.P,U1,19*
G04 #@! TO.N,Col6*
X182118000Y66040000D03*
G04 #@! TO.P,U1,18*
G04 #@! TO.N,Col7*
X184658000Y66040000D03*
G04 #@! TO.P,U1,17*
G04 #@! TO.N,Col8*
X187198000Y66040000D03*
G04 #@! TO.P,U1,16*
G04 #@! TO.N,Row4*
X189738000Y66040000D03*
G04 #@! TO.P,U1,15*
G04 #@! TO.N,Row5*
X192278000Y66040000D03*
G04 #@! TO.P,U1,14*
G04 #@! TO.N,Row6*
X194818000Y66040000D03*
G04 #@! TO.P,U1,13*
G04 #@! TO.N,Row7*
X197358000Y66040000D03*
G04 #@! TO.P,U1,12*
G04 #@! TO.N,Col4*
X197358000Y81280000D03*
G04 #@! TO.P,U1,11*
G04 #@! TO.N,Col3*
X194818000Y81280000D03*
G04 #@! TO.P,U1,10*
G04 #@! TO.N,Col2*
X192278000Y81280000D03*
G04 #@! TO.P,U1,9*
G04 #@! TO.N,Col1*
X189738000Y81280000D03*
G04 #@! TO.P,U1,8*
G04 #@! TO.N,Col0*
X187198000Y81280000D03*
G04 #@! TO.P,U1,7*
G04 #@! TO.N,Row3*
X184658000Y81280000D03*
G04 #@! TO.P,U1,6*
G04 #@! TO.N,Row2*
X182118000Y81280000D03*
G04 #@! TO.P,U1,5*
G04 #@! TO.N,Row1*
X179578000Y81280000D03*
G04 #@! TO.P,U1,4*
G04 #@! TO.N,Ground*
X177038000Y81280000D03*
G04 #@! TO.P,U1,3*
X174498000Y81280000D03*
G04 #@! TO.P,U1,2*
G04 #@! TO.N,Row0*
X171958000Y81280000D03*
D16*
G04 #@! TO.P,U1,1*
G04 #@! TO.N,Net-(U1-Pad1)*
X169418000Y81280000D03*
G04 #@! TD*
D17*
G04 #@! TO.P,KeyMod2,2*
G04 #@! TO.N,Net-(D62-Pad2)*
X255399000Y21336000D03*
G04 #@! TO.P,KeyMod2,1*
G04 #@! TO.N,Col8*
X249049000Y18796000D03*
G04 #@! TD*
G04 #@! TO.P,KeyMod1,2*
G04 #@! TO.N,Net-(D55-Pad2)*
X281591000Y40387000D03*
G04 #@! TO.P,KeyMod1,1*
G04 #@! TO.N,Col6*
X275241000Y37847000D03*
G04 #@! TD*
G04 #@! TO.P,KeyZ1,2*
G04 #@! TO.N,Net-(D44-Pad2)*
X57752000Y40387000D03*
G04 #@! TO.P,KeyZ1,1*
G04 #@! TO.N,Col7*
X51402000Y37847000D03*
G04 #@! TD*
G04 #@! TO.P,KeyY1,2*
G04 #@! TO.N,Net-(D22-Pad2)*
X138715000Y78488000D03*
G04 #@! TO.P,KeyY1,1*
G04 #@! TO.N,Col2*
X132365000Y75948000D03*
G04 #@! TD*
G04 #@! TO.P,KeyX1,2*
G04 #@! TO.N,Net-(D45-Pad2)*
X76802000Y40387000D03*
G04 #@! TO.P,KeyX1,1*
G04 #@! TO.N,Col6*
X70452000Y37847000D03*
G04 #@! TD*
G04 #@! TO.P,KeyWin1U1,2*
G04 #@! TO.N,Net-(D57-Pad2)*
X43464000Y21336000D03*
G04 #@! TO.P,KeyWin1U1,1*
G04 #@! TO.N,Col8*
X37114000Y18796000D03*
G04 #@! TD*
G04 #@! TO.P,KeyWin1,2*
G04 #@! TO.N,Net-(D57-Pad2)*
X41086000Y21336000D03*
G04 #@! TO.P,KeyWin1,1*
G04 #@! TO.N,Col8*
X34736000Y18796000D03*
G04 #@! TD*
G04 #@! TO.P,KeyWave1,2*
G04 #@! TO.N,Net-(D14-Pad2)*
X262540000Y97536000D03*
G04 #@! TO.P,KeyWave1,1*
G04 #@! TO.N,Col1*
X256190000Y94996000D03*
G04 #@! TD*
G04 #@! TO.P,KeyW1,2*
G04 #@! TO.N,Net-(D18-Pad2)*
X62515000Y78488000D03*
G04 #@! TO.P,KeyW1,1*
G04 #@! TO.N,Col2*
X56165000Y75948000D03*
G04 #@! TD*
G04 #@! TO.P,KeyV1,2*
G04 #@! TO.N,Net-(D47-Pad2)*
X114902000Y40387000D03*
G04 #@! TO.P,KeyV1,1*
G04 #@! TO.N,Col6*
X108552000Y37847000D03*
G04 #@! TD*
G04 #@! TO.P,KeyU1,2*
G04 #@! TO.N,Net-(D23-Pad2)*
X157765000Y78488000D03*
G04 #@! TO.P,KeyU1,1*
G04 #@! TO.N,Col3*
X151415000Y75948000D03*
G04 #@! TD*
G04 #@! TO.P,KeyTitikdua1,2*
G04 #@! TO.N,Net-(D40-Pad2)*
X219668000Y59436000D03*
G04 #@! TO.P,KeyTitikdua1,1*
G04 #@! TO.N,Col4*
X213318000Y56896000D03*
G04 #@! TD*
G04 #@! TO.P,KeyTitik1,2*
G04 #@! TO.N,Net-(D52-Pad2)*
X210153000Y40387000D03*
G04 #@! TO.P,KeyTitik1,1*
G04 #@! TO.N,Col7*
X203803000Y37847000D03*
G04 #@! TD*
G04 #@! TO.P,KeyTanya1,2*
G04 #@! TO.N,Net-(D53-Pad2)*
X229203000Y40387000D03*
G04 #@! TO.P,KeyTanya1,1*
G04 #@! TO.N,Col6*
X222853000Y37847000D03*
G04 #@! TD*
G04 #@! TO.P,KeyTab1,2*
G04 #@! TO.N,Net-(D16-Pad2)*
X19652000Y78488000D03*
G04 #@! TO.P,KeyTab1,1*
G04 #@! TO.N,Col2*
X13302000Y75948000D03*
G04 #@! TD*
G04 #@! TO.P,KeyT1,2*
G04 #@! TO.N,Net-(D21-Pad2)*
X119665000Y78488000D03*
G04 #@! TO.P,KeyT1,1*
G04 #@! TO.N,Col3*
X113315000Y75948000D03*
G04 #@! TD*
G04 #@! TO.P,KeySpace7U1,2*
G04 #@! TO.N,Net-(D59-Pad2)*
X148240000Y21336000D03*
G04 #@! TO.P,KeySpace7U1,1*
G04 #@! TO.N,Col8*
X141890000Y18796000D03*
G04 #@! TD*
G04 #@! TO.P,KeySpace6.25,2*
G04 #@! TO.N,Net-(D59-Pad2)*
X136336000Y21336000D03*
G04 #@! TO.P,KeySpace6.25,1*
G04 #@! TO.N,Col8*
X129986000Y18796000D03*
G04 #@! TD*
G04 #@! TO.P,KeyS1,2*
G04 #@! TO.N,Net-(D32-Pad2)*
X67236000Y59436000D03*
G04 #@! TO.P,KeyS1,1*
G04 #@! TO.N,Col4*
X60886000Y56896000D03*
G04 #@! TD*
G04 #@! TO.P,KeyRShift2.75U1,2*
G04 #@! TO.N,Net-(D54-Pad2)*
X264922000Y40387000D03*
G04 #@! TO.P,KeyRShift2.75U1,1*
G04 #@! TO.N,Col7*
X258572000Y37847000D03*
G04 #@! TD*
G04 #@! TO.P,KeyRShift1,2*
G04 #@! TO.N,Net-(D54-Pad2)*
X255397000Y40387000D03*
G04 #@! TO.P,KeyRShift1,1*
G04 #@! TO.N,Col7*
X249047000Y37847000D03*
G04 #@! TD*
G04 #@! TO.P,KeyRCtrl1.5U1,2*
G04 #@! TO.N,Net-(D63-Pad2)*
X276830000Y21336000D03*
G04 #@! TO.P,KeyRCtrl1.5U1,1*
G04 #@! TO.N,Col8*
X270480000Y18796000D03*
G04 #@! TD*
G04 #@! TO.P,KeyRCtrl1,2*
G04 #@! TO.N,Net-(D63-Pad2)*
X279211000Y21336000D03*
G04 #@! TO.P,KeyRCtrl1,1*
G04 #@! TO.N,Col8*
X272861000Y18796000D03*
G04 #@! TD*
G04 #@! TO.P,KeyRAlt1.5U1,2*
G04 #@! TO.N,Net-(D61-Pad2)*
X229201000Y21336000D03*
G04 #@! TO.P,KeyRAlt1.5U1,1*
G04 #@! TO.N,Col8*
X222851000Y18796000D03*
G04 #@! TD*
G04 #@! TO.P,KeyRAlt1,2*
G04 #@! TO.N,Net-(D60-Pad2)*
X207772000Y21336000D03*
G04 #@! TO.P,KeyRAlt1,1*
G04 #@! TO.N,Col8*
X201422000Y18796000D03*
G04 #@! TD*
G04 #@! TO.P,KeyR]1,2*
G04 #@! TO.N,Net-(D28-Pad2)*
X253020000Y78488000D03*
G04 #@! TO.P,KeyR]1,1*
G04 #@! TO.N,Col2*
X246670000Y75948000D03*
G04 #@! TD*
G04 #@! TO.P,KeyR1,2*
G04 #@! TO.N,Net-(D20-Pad2)*
X100615000Y78488000D03*
G04 #@! TO.P,KeyR1,1*
G04 #@! TO.N,Col2*
X94265000Y75948000D03*
G04 #@! TD*
G04 #@! TO.P,KeyQ1,2*
G04 #@! TO.N,Net-(D17-Pad2)*
X43465000Y78488000D03*
G04 #@! TO.P,KeyQ1,1*
G04 #@! TO.N,Col3*
X37115000Y75948000D03*
G04 #@! TD*
G04 #@! TO.P,KeyPlus1,2*
G04 #@! TO.N,Net-(D13-Pad2)*
X243490000Y97536000D03*
G04 #@! TO.P,KeyPlus1,1*
G04 #@! TO.N,Col0*
X237140000Y94996000D03*
G04 #@! TD*
G04 #@! TO.P,KeyPetik1,2*
G04 #@! TO.N,Net-(D41-Pad2)*
X238722000Y59436000D03*
G04 #@! TO.P,KeyPetik1,1*
G04 #@! TO.N,Col5*
X232372000Y56896000D03*
G04 #@! TD*
G04 #@! TO.P,KeyP1,2*
G04 #@! TO.N,Net-(D26-Pad2)*
X214919000Y78488000D03*
G04 #@! TO.P,KeyP1,1*
G04 #@! TO.N,Col2*
X208569000Y75948000D03*
G04 #@! TD*
G04 #@! TO.P,KeyO1,2*
G04 #@! TO.N,Net-(D25-Pad2)*
X195869000Y78488000D03*
G04 #@! TO.P,KeyO1,1*
G04 #@! TO.N,Col3*
X189519000Y75948000D03*
G04 #@! TD*
G04 #@! TO.P,KeyNo9,2*
G04 #@! TO.N,Net-(D10-Pad2)*
X186340000Y97536000D03*
G04 #@! TO.P,KeyNo9,1*
G04 #@! TO.N,Col1*
X179990000Y94996000D03*
G04 #@! TD*
G04 #@! TO.P,KeyNo8,2*
G04 #@! TO.N,Net-(D9-Pad2)*
X167290000Y97536000D03*
G04 #@! TO.P,KeyNo8,1*
G04 #@! TO.N,Col0*
X160940000Y94996000D03*
G04 #@! TD*
G04 #@! TO.P,KeyNo7,2*
G04 #@! TO.N,Net-(D8-Pad2)*
X148240000Y97536000D03*
G04 #@! TO.P,KeyNo7,1*
G04 #@! TO.N,Col1*
X141890000Y94996000D03*
G04 #@! TD*
G04 #@! TO.P,KeyNo6,2*
G04 #@! TO.N,Net-(D7-Pad2)*
X129190000Y97536000D03*
G04 #@! TO.P,KeyNo6,1*
G04 #@! TO.N,Col0*
X122840000Y94996000D03*
G04 #@! TD*
G04 #@! TO.P,KeyNo5,2*
G04 #@! TO.N,Net-(D6-Pad2)*
X110140000Y97536000D03*
G04 #@! TO.P,KeyNo5,1*
G04 #@! TO.N,Col1*
X103790000Y94996000D03*
G04 #@! TD*
G04 #@! TO.P,KeyNo4,2*
G04 #@! TO.N,Net-(D5-Pad2)*
X91090000Y97536000D03*
G04 #@! TO.P,KeyNo4,1*
G04 #@! TO.N,Col0*
X84740000Y94996000D03*
G04 #@! TD*
G04 #@! TO.P,KeyNo3,2*
G04 #@! TO.N,Net-(D4-Pad2)*
X72040000Y97536000D03*
G04 #@! TO.P,KeyNo3,1*
G04 #@! TO.N,Col1*
X65690000Y94996000D03*
G04 #@! TD*
G04 #@! TO.P,KeyNo2,2*
G04 #@! TO.N,Net-(D3-Pad2)*
X52990000Y97536000D03*
G04 #@! TO.P,KeyNo2,1*
G04 #@! TO.N,Col0*
X46640000Y94996000D03*
G04 #@! TD*
G04 #@! TO.P,KeyNo1,2*
G04 #@! TO.N,Net-(D2-Pad2)*
X28860000Y87376000D03*
G04 #@! TO.P,KeyNo1,1*
G04 #@! TO.N,Col1*
X35210000Y89916000D03*
G04 #@! TD*
G04 #@! TO.P,KeyNo0,2*
G04 #@! TO.N,Net-(D11-Pad2)*
X205390000Y97536000D03*
G04 #@! TO.P,KeyNo0,1*
G04 #@! TO.N,Col0*
X199040000Y94996000D03*
G04 #@! TD*
G04 #@! TO.P,KeyN1,2*
G04 #@! TO.N,Net-(D49-Pad2)*
X153003000Y40387000D03*
G04 #@! TO.P,KeyN1,1*
G04 #@! TO.N,Col6*
X146653000Y37847000D03*
G04 #@! TD*
G04 #@! TO.P,KeyMinus1,2*
G04 #@! TO.N,Net-(D12-Pad2)*
X224440000Y97536000D03*
G04 #@! TO.P,KeyMinus1,1*
G04 #@! TO.N,Col1*
X218090000Y94996000D03*
G04 #@! TD*
G04 #@! TO.P,KeyMenu1U1,2*
G04 #@! TO.N,Net-(D62-Pad2)*
X253016000Y21336000D03*
G04 #@! TO.P,KeyMenu1U1,1*
G04 #@! TO.N,Col8*
X246666000Y18796000D03*
G04 #@! TD*
G04 #@! TO.P,KeyMenu1,2*
G04 #@! TO.N,Net-(D61-Pad2)*
X231586000Y21336000D03*
G04 #@! TO.P,KeyMenu1,1*
G04 #@! TO.N,Col8*
X225236000Y18796000D03*
G04 #@! TD*
G04 #@! TO.P,KeyM1,2*
G04 #@! TO.N,Net-(D50-Pad2)*
X172053000Y40387000D03*
G04 #@! TO.P,KeyM1,1*
G04 #@! TO.N,Col7*
X165703000Y37847000D03*
G04 #@! TD*
G04 #@! TO.P,KeyLShift1,2*
G04 #@! TO.N,Net-(D43-Pad2)*
X26796000Y40387000D03*
G04 #@! TO.P,KeyLShift1,1*
G04 #@! TO.N,Col6*
X20446000Y37847000D03*
G04 #@! TD*
G04 #@! TO.P,KeyLCtrl1.5U1,2*
G04 #@! TO.N,Net-(D56-Pad2)*
X19652500Y21336000D03*
G04 #@! TO.P,KeyLCtrl1.5U1,1*
G04 #@! TO.N,Col8*
X13302500Y18796000D03*
G04 #@! TD*
G04 #@! TO.P,KeyLCtrl1,2*
G04 #@! TO.N,Net-(D56-Pad2)*
X17272000Y21336000D03*
G04 #@! TO.P,KeyLCtrl1,1*
G04 #@! TO.N,Col8*
X10922000Y18796000D03*
G04 #@! TD*
G04 #@! TO.P,KeyLAlt1U1,2*
G04 #@! TO.N,Net-(D58-Pad2)*
X67279000Y21336000D03*
G04 #@! TO.P,KeyLAlt1U1,1*
G04 #@! TO.N,Col8*
X60929000Y18796000D03*
G04 #@! TD*
G04 #@! TO.P,KeyLAlt1,2*
G04 #@! TO.N,Net-(D58-Pad2)*
X64896000Y21336000D03*
G04 #@! TO.P,KeyLAlt1,1*
G04 #@! TO.N,Col8*
X58546000Y18796000D03*
G04 #@! TD*
G04 #@! TO.P,KeyL[1,2*
G04 #@! TO.N,Net-(D27-Pad2)*
X233970000Y78488000D03*
G04 #@! TO.P,KeyL[1,1*
G04 #@! TO.N,Col3*
X227620000Y75948000D03*
G04 #@! TD*
G04 #@! TO.P,KeyL1,2*
G04 #@! TO.N,Net-(D39-Pad2)*
X200614000Y59436000D03*
G04 #@! TO.P,KeyL1,1*
G04 #@! TO.N,Col5*
X194264000Y56896000D03*
G04 #@! TD*
G04 #@! TO.P,KeyKoma1,2*
G04 #@! TO.N,Net-(D51-Pad2)*
X191103000Y40387000D03*
G04 #@! TO.P,KeyKoma1,1*
G04 #@! TO.N,Col6*
X184753000Y37847000D03*
G04 #@! TD*
G04 #@! TO.P,KeyK1,2*
G04 #@! TO.N,Net-(D38-Pad2)*
X181560000Y59436000D03*
G04 #@! TO.P,KeyK1,1*
G04 #@! TO.N,Col4*
X175210000Y56896000D03*
G04 #@! TD*
G04 #@! TO.P,KeyJ1,2*
G04 #@! TO.N,Net-(D37-Pad2)*
X162506000Y59436000D03*
G04 #@! TO.P,KeyJ1,1*
G04 #@! TO.N,Col5*
X156156000Y56896000D03*
G04 #@! TD*
G04 #@! TO.P,KeyI1,2*
G04 #@! TO.N,Net-(D24-Pad2)*
X176819000Y78488000D03*
G04 #@! TO.P,KeyI1,1*
G04 #@! TO.N,Col2*
X170469000Y75948000D03*
G04 #@! TD*
G04 #@! TO.P,KeyH1,2*
G04 #@! TO.N,Net-(D36-Pad2)*
X143452000Y59436000D03*
G04 #@! TO.P,KeyH1,1*
G04 #@! TO.N,Col4*
X137102000Y56896000D03*
G04 #@! TD*
G04 #@! TO.P,KeyG1,2*
G04 #@! TO.N,Net-(D35-Pad2)*
X124398000Y59436000D03*
G04 #@! TO.P,KeyG1,1*
G04 #@! TO.N,Col5*
X118048000Y56896000D03*
G04 #@! TD*
G04 #@! TO.P,KeyF1,2*
G04 #@! TO.N,Net-(D34-Pad2)*
X105344000Y59436000D03*
G04 #@! TO.P,KeyF1,1*
G04 #@! TO.N,Col4*
X98994000Y56896000D03*
G04 #@! TD*
G04 #@! TO.P,KeyEsc1,2*
G04 #@! TO.N,Net-(D1-Pad2)*
X9810000Y87376000D03*
G04 #@! TO.P,KeyEsc1,1*
G04 #@! TO.N,Col0*
X16160000Y89916000D03*
G04 #@! TD*
G04 #@! TO.P,KeyEnter1,2*
G04 #@! TO.N,Net-(D42-Pad2)*
X269679000Y59436000D03*
G04 #@! TO.P,KeyEnter1,1*
G04 #@! TO.N,Col4*
X263329000Y56896000D03*
G04 #@! TD*
G04 #@! TO.P,KeyE1,2*
G04 #@! TO.N,Net-(D19-Pad2)*
X81565000Y78488000D03*
G04 #@! TO.P,KeyE1,1*
G04 #@! TO.N,Col3*
X75215000Y75948000D03*
G04 #@! TD*
G04 #@! TO.P,KeyDBackslas1,2*
G04 #@! TO.N,Net-(D29-Pad2)*
X276833000Y78488000D03*
G04 #@! TO.P,KeyDBackslas1,1*
G04 #@! TO.N,Col3*
X270483000Y75948000D03*
G04 #@! TD*
G04 #@! TO.P,KeyD1,2*
G04 #@! TO.N,Net-(D33-Pad2)*
X86290000Y59436000D03*
G04 #@! TO.P,KeyD1,1*
G04 #@! TO.N,Col5*
X79940000Y56896000D03*
G04 #@! TD*
G04 #@! TO.P,KeyCaps1,2*
G04 #@! TO.N,Net-(D30-Pad2)*
X22033750Y59436000D03*
G04 #@! TO.P,KeyCaps1,1*
G04 #@! TO.N,Col4*
X15683750Y56896000D03*
G04 #@! TD*
G04 #@! TO.P,KeyC1,2*
G04 #@! TO.N,Net-(D46-Pad2)*
X95852000Y40387000D03*
G04 #@! TO.P,KeyC1,1*
G04 #@! TO.N,Col7*
X89502000Y37847000D03*
G04 #@! TD*
G04 #@! TO.P,KeyBS1,2*
G04 #@! TO.N,Net-(D15-Pad2)*
X272064000Y97536000D03*
G04 #@! TO.P,KeyBS1,1*
G04 #@! TO.N,Col0*
X265714000Y94996000D03*
G04 #@! TD*
G04 #@! TO.P,KeyBackSlash1,2*
G04 #@! TO.N,Net-(D15-Pad2)*
X281590000Y97536000D03*
G04 #@! TO.P,KeyBackSlash1,1*
G04 #@! TO.N,Col0*
X275240000Y94996000D03*
G04 #@! TD*
G04 #@! TO.P,KeyB1,2*
G04 #@! TO.N,Net-(D48-Pad2)*
X133952000Y40387000D03*
G04 #@! TO.P,KeyB1,1*
G04 #@! TO.N,Col7*
X127602000Y37847000D03*
G04 #@! TD*
G04 #@! TO.P,KeyA1,2*
G04 #@! TO.N,Net-(D31-Pad2)*
X48185000Y59436000D03*
G04 #@! TO.P,KeyA1,1*
G04 #@! TO.N,Col5*
X41835000Y56896000D03*
G04 #@! TD*
D18*
G04 #@! TO.P,D63,2*
G04 #@! TO.N,Net-(D63-Pad2)*
X265684000Y21336000D03*
D16*
G04 #@! TO.P,D63,1*
G04 #@! TO.N,Row6*
X265684000Y13716000D03*
G04 #@! TD*
D18*
G04 #@! TO.P,D62,2*
G04 #@! TO.N,Net-(D62-Pad2)*
X261620000Y21336000D03*
D16*
G04 #@! TO.P,D62,1*
G04 #@! TO.N,Row6*
X261620000Y13716000D03*
G04 #@! TD*
D18*
G04 #@! TO.P,D61,2*
G04 #@! TO.N,Net-(D61-Pad2)*
X237744000Y21336000D03*
D16*
G04 #@! TO.P,D61,1*
G04 #@! TO.N,Row5*
X237744000Y13716000D03*
G04 #@! TD*
D18*
G04 #@! TO.P,D60,2*
G04 #@! TO.N,Net-(D60-Pad2)*
X213868000Y21336000D03*
D16*
G04 #@! TO.P,D60,1*
G04 #@! TO.N,Row4*
X213868000Y13716000D03*
G04 #@! TD*
D18*
G04 #@! TO.P,D59,2*
G04 #@! TO.N,Net-(D59-Pad2)*
X124460000Y11684000D03*
D16*
G04 #@! TO.P,D59,1*
G04 #@! TO.N,Row3*
X124460000Y19304000D03*
G04 #@! TD*
D18*
G04 #@! TO.P,D58,2*
G04 #@! TO.N,Net-(D58-Pad2)*
X73152000Y21336000D03*
D16*
G04 #@! TO.P,D58,1*
G04 #@! TO.N,Row2*
X73152000Y13716000D03*
G04 #@! TD*
D18*
G04 #@! TO.P,D57,2*
G04 #@! TO.N,Net-(D57-Pad2)*
X49276000Y21336000D03*
D16*
G04 #@! TO.P,D57,1*
G04 #@! TO.N,Row1*
X49276000Y13716000D03*
G04 #@! TD*
D18*
G04 #@! TO.P,D56,2*
G04 #@! TO.N,Net-(D56-Pad2)*
X25400000Y21336000D03*
D16*
G04 #@! TO.P,D56,1*
G04 #@! TO.N,Row0*
X25400000Y13716000D03*
G04 #@! TD*
D18*
G04 #@! TO.P,D55,2*
G04 #@! TO.N,Net-(D55-Pad2)*
X270764000Y40132000D03*
D16*
G04 #@! TO.P,D55,1*
G04 #@! TO.N,Row6*
X270764000Y32512000D03*
G04 #@! TD*
D18*
G04 #@! TO.P,D54,2*
G04 #@! TO.N,Net-(D54-Pad2)*
X243840000Y40640000D03*
D16*
G04 #@! TO.P,D54,1*
G04 #@! TO.N,Row5*
X243840000Y33020000D03*
G04 #@! TD*
D18*
G04 #@! TO.P,D53,2*
G04 #@! TO.N,Net-(D53-Pad2)*
X235204000Y40640000D03*
D16*
G04 #@! TO.P,D53,1*
G04 #@! TO.N,Row5*
X235204000Y33020000D03*
G04 #@! TD*
D18*
G04 #@! TO.P,D52,2*
G04 #@! TO.N,Net-(D52-Pad2)*
X215900000Y40640000D03*
D16*
G04 #@! TO.P,D52,1*
G04 #@! TO.N,Row4*
X215900000Y33020000D03*
G04 #@! TD*
D18*
G04 #@! TO.P,D51,2*
G04 #@! TO.N,Net-(D51-Pad2)*
X197104000Y40132000D03*
D16*
G04 #@! TO.P,D51,1*
G04 #@! TO.N,Row4*
X197104000Y32512000D03*
G04 #@! TD*
D18*
G04 #@! TO.P,D50,2*
G04 #@! TO.N,Net-(D50-Pad2)*
X177800000Y40640000D03*
D16*
G04 #@! TO.P,D50,1*
G04 #@! TO.N,Row3*
X177800000Y33020000D03*
G04 #@! TD*
D18*
G04 #@! TO.P,D49,2*
G04 #@! TO.N,Net-(D49-Pad2)*
X159004000Y40640000D03*
D16*
G04 #@! TO.P,D49,1*
G04 #@! TO.N,Row3*
X159004000Y33020000D03*
G04 #@! TD*
D18*
G04 #@! TO.P,D48,2*
G04 #@! TO.N,Net-(D48-Pad2)*
X139700000Y40640000D03*
D16*
G04 #@! TO.P,D48,1*
G04 #@! TO.N,Row2*
X139700000Y33020000D03*
G04 #@! TD*
D18*
G04 #@! TO.P,D47,2*
G04 #@! TO.N,Net-(D47-Pad2)*
X120904000Y40640000D03*
D16*
G04 #@! TO.P,D47,1*
G04 #@! TO.N,Row2*
X120904000Y33020000D03*
G04 #@! TD*
D18*
G04 #@! TO.P,D46,2*
G04 #@! TO.N,Net-(D46-Pad2)*
X101600000Y40640000D03*
D16*
G04 #@! TO.P,D46,1*
G04 #@! TO.N,Row1*
X101600000Y33020000D03*
G04 #@! TD*
D18*
G04 #@! TO.P,D45,2*
G04 #@! TO.N,Net-(D45-Pad2)*
X82804000Y40640000D03*
D16*
G04 #@! TO.P,D45,1*
G04 #@! TO.N,Row1*
X82804000Y33020000D03*
G04 #@! TD*
D18*
G04 #@! TO.P,D44,2*
G04 #@! TO.N,Net-(D44-Pad2)*
X63500000Y40640000D03*
D16*
G04 #@! TO.P,D44,1*
G04 #@! TO.N,Row0*
X63500000Y33020000D03*
G04 #@! TD*
D18*
G04 #@! TO.P,D43,2*
G04 #@! TO.N,Net-(D43-Pad2)*
X32512000Y40640000D03*
D16*
G04 #@! TO.P,D43,1*
G04 #@! TO.N,Row0*
X32512000Y33020000D03*
G04 #@! TD*
D18*
G04 #@! TO.P,D42,2*
G04 #@! TO.N,Net-(D42-Pad2)*
X258572000Y59944000D03*
D16*
G04 #@! TO.P,D42,1*
G04 #@! TO.N,Row6*
X258572000Y52324000D03*
G04 #@! TD*
D18*
G04 #@! TO.P,D41,2*
G04 #@! TO.N,Net-(D41-Pad2)*
X244856000Y59436000D03*
D16*
G04 #@! TO.P,D41,1*
G04 #@! TO.N,Row5*
X244856000Y51816000D03*
G04 #@! TD*
D18*
G04 #@! TO.P,D40,2*
G04 #@! TO.N,Net-(D40-Pad2)*
X225552000Y59436000D03*
D16*
G04 #@! TO.P,D40,1*
G04 #@! TO.N,Row5*
X225552000Y51816000D03*
G04 #@! TD*
D18*
G04 #@! TO.P,D39,2*
G04 #@! TO.N,Net-(D39-Pad2)*
X206756000Y59436000D03*
D16*
G04 #@! TO.P,D39,1*
G04 #@! TO.N,Row4*
X206756000Y51816000D03*
G04 #@! TD*
D18*
G04 #@! TO.P,D38,2*
G04 #@! TO.N,Net-(D38-Pad2)*
X187452000Y59436000D03*
D16*
G04 #@! TO.P,D38,1*
G04 #@! TO.N,Row4*
X187452000Y51816000D03*
G04 #@! TD*
D18*
G04 #@! TO.P,D37,2*
G04 #@! TO.N,Net-(D37-Pad2)*
X168656000Y59436000D03*
D16*
G04 #@! TO.P,D37,1*
G04 #@! TO.N,Row3*
X168656000Y51816000D03*
G04 #@! TD*
D18*
G04 #@! TO.P,D36,2*
G04 #@! TO.N,Net-(D36-Pad2)*
X149352000Y59436000D03*
D16*
G04 #@! TO.P,D36,1*
G04 #@! TO.N,Row3*
X149352000Y51816000D03*
G04 #@! TD*
D18*
G04 #@! TO.P,D35,2*
G04 #@! TO.N,Net-(D35-Pad2)*
X130556000Y59436000D03*
D16*
G04 #@! TO.P,D35,1*
G04 #@! TO.N,Row2*
X130556000Y51816000D03*
G04 #@! TD*
D18*
G04 #@! TO.P,D34,2*
G04 #@! TO.N,Net-(D34-Pad2)*
X111252000Y59436000D03*
D16*
G04 #@! TO.P,D34,1*
G04 #@! TO.N,Row2*
X111252000Y51816000D03*
G04 #@! TD*
D18*
G04 #@! TO.P,D33,2*
G04 #@! TO.N,Net-(D33-Pad2)*
X92456000Y59436000D03*
D16*
G04 #@! TO.P,D33,1*
G04 #@! TO.N,Row1*
X92456000Y51816000D03*
G04 #@! TD*
D18*
G04 #@! TO.P,D32,2*
G04 #@! TO.N,Net-(D32-Pad2)*
X73152000Y59436000D03*
D16*
G04 #@! TO.P,D32,1*
G04 #@! TO.N,Row1*
X73152000Y51816000D03*
G04 #@! TD*
D18*
G04 #@! TO.P,D31,2*
G04 #@! TO.N,Net-(D31-Pad2)*
X54356000Y59436000D03*
D16*
G04 #@! TO.P,D31,1*
G04 #@! TO.N,Row0*
X54356000Y51816000D03*
G04 #@! TD*
D18*
G04 #@! TO.P,D30,2*
G04 #@! TO.N,Net-(D30-Pad2)*
X27940000Y59436000D03*
D16*
G04 #@! TO.P,D30,1*
G04 #@! TO.N,Row0*
X27940000Y51816000D03*
G04 #@! TD*
D18*
G04 #@! TO.P,D29,2*
G04 #@! TO.N,Net-(D29-Pad2)*
X274828000Y65024000D03*
D16*
G04 #@! TO.P,D29,1*
G04 #@! TO.N,Row7*
X267208000Y65024000D03*
G04 #@! TD*
D18*
G04 #@! TO.P,D28,2*
G04 #@! TO.N,Net-(D28-Pad2)*
X251968000Y65024000D03*
D16*
G04 #@! TO.P,D28,1*
G04 #@! TO.N,Row6*
X244348000Y65024000D03*
G04 #@! TD*
D18*
G04 #@! TO.P,D27,2*
G04 #@! TO.N,Net-(D27-Pad2)*
X239776000Y78740000D03*
D16*
G04 #@! TO.P,D27,1*
G04 #@! TO.N,Row5*
X239776000Y71120000D03*
G04 #@! TD*
D18*
G04 #@! TO.P,D26,2*
G04 #@! TO.N,Net-(D26-Pad2)*
X220980000Y78740000D03*
D16*
G04 #@! TO.P,D26,1*
G04 #@! TO.N,Row5*
X220980000Y71120000D03*
G04 #@! TD*
D18*
G04 #@! TO.P,D25,2*
G04 #@! TO.N,Net-(D25-Pad2)*
X201676000Y78232000D03*
D16*
G04 #@! TO.P,D25,1*
G04 #@! TO.N,Row4*
X201676000Y70612000D03*
G04 #@! TD*
D18*
G04 #@! TO.P,D24,2*
G04 #@! TO.N,Net-(D24-Pad2)*
X182880000Y78232000D03*
D16*
G04 #@! TO.P,D24,1*
G04 #@! TO.N,Row4*
X182880000Y70612000D03*
G04 #@! TD*
D18*
G04 #@! TO.P,D23,2*
G04 #@! TO.N,Net-(D23-Pad2)*
X163576000Y78232000D03*
D16*
G04 #@! TO.P,D23,1*
G04 #@! TO.N,Row3*
X163576000Y70612000D03*
G04 #@! TD*
D18*
G04 #@! TO.P,D22,2*
G04 #@! TO.N,Net-(D22-Pad2)*
X144780000Y78740000D03*
D16*
G04 #@! TO.P,D22,1*
G04 #@! TO.N,Row3*
X144780000Y71120000D03*
G04 #@! TD*
D18*
G04 #@! TO.P,D21,2*
G04 #@! TO.N,Net-(D21-Pad2)*
X125476000Y78740000D03*
D16*
G04 #@! TO.P,D21,1*
G04 #@! TO.N,Row2*
X125476000Y71120000D03*
G04 #@! TD*
D18*
G04 #@! TO.P,D20,2*
G04 #@! TO.N,Net-(D20-Pad2)*
X106680000Y78232000D03*
D16*
G04 #@! TO.P,D20,1*
G04 #@! TO.N,Row2*
X106680000Y70612000D03*
G04 #@! TD*
D18*
G04 #@! TO.P,D19,2*
G04 #@! TO.N,Net-(D19-Pad2)*
X87376000Y78232000D03*
D16*
G04 #@! TO.P,D19,1*
G04 #@! TO.N,Row1*
X87376000Y70612000D03*
G04 #@! TD*
D18*
G04 #@! TO.P,D18,2*
G04 #@! TO.N,Net-(D18-Pad2)*
X68580000Y78232000D03*
D16*
G04 #@! TO.P,D18,1*
G04 #@! TO.N,Row1*
X68580000Y70612000D03*
G04 #@! TD*
D18*
G04 #@! TO.P,D17,2*
G04 #@! TO.N,Net-(D17-Pad2)*
X49276000Y78740000D03*
D16*
G04 #@! TO.P,D17,1*
G04 #@! TO.N,Row0*
X49276000Y71120000D03*
G04 #@! TD*
D18*
G04 #@! TO.P,D16,2*
G04 #@! TO.N,Net-(D16-Pad2)*
X8636000Y78740000D03*
D16*
G04 #@! TO.P,D16,1*
G04 #@! TO.N,Row0*
X8636000Y71120000D03*
G04 #@! TD*
D18*
G04 #@! TO.P,D15,2*
G04 #@! TO.N,Net-(D15-Pad2)*
X265684000Y84328000D03*
D16*
G04 #@! TO.P,D15,1*
G04 #@! TO.N,Row7*
X265684000Y76708000D03*
G04 #@! TD*
D18*
G04 #@! TO.P,D14,2*
G04 #@! TO.N,Net-(D14-Pad2)*
X262128000Y84328000D03*
D16*
G04 #@! TO.P,D14,1*
G04 #@! TO.N,Row6*
X262128000Y76708000D03*
G04 #@! TD*
D18*
G04 #@! TO.P,D13,2*
G04 #@! TO.N,Net-(D13-Pad2)*
X249428000Y97536000D03*
D16*
G04 #@! TO.P,D13,1*
G04 #@! TO.N,Row6*
X249428000Y89916000D03*
G04 #@! TD*
D18*
G04 #@! TO.P,D12,2*
G04 #@! TO.N,Net-(D12-Pad2)*
X230632000Y97536000D03*
D16*
G04 #@! TO.P,D12,1*
G04 #@! TO.N,Row5*
X230632000Y89916000D03*
G04 #@! TD*
D18*
G04 #@! TO.P,D11,2*
G04 #@! TO.N,Net-(D11-Pad2)*
X211328000Y97536000D03*
D16*
G04 #@! TO.P,D11,1*
G04 #@! TO.N,Row5*
X211328000Y89916000D03*
G04 #@! TD*
D18*
G04 #@! TO.P,D10,2*
G04 #@! TO.N,Net-(D10-Pad2)*
X192024000Y97536000D03*
D16*
G04 #@! TO.P,D10,1*
G04 #@! TO.N,Row4*
X192024000Y89916000D03*
G04 #@! TD*
D18*
G04 #@! TO.P,D9,2*
G04 #@! TO.N,Net-(D9-Pad2)*
X173228000Y97536000D03*
D16*
G04 #@! TO.P,D9,1*
G04 #@! TO.N,Row4*
X173228000Y89916000D03*
G04 #@! TD*
D18*
G04 #@! TO.P,D8,2*
G04 #@! TO.N,Net-(D8-Pad2)*
X153924000Y97536000D03*
D16*
G04 #@! TO.P,D8,1*
G04 #@! TO.N,Row3*
X153924000Y89916000D03*
G04 #@! TD*
D18*
G04 #@! TO.P,D7,2*
G04 #@! TO.N,Net-(D7-Pad2)*
X135128000Y97536000D03*
D16*
G04 #@! TO.P,D7,1*
G04 #@! TO.N,Row3*
X135128000Y89916000D03*
G04 #@! TD*
D18*
G04 #@! TO.P,D6,2*
G04 #@! TO.N,Net-(D6-Pad2)*
X115824000Y97536000D03*
D16*
G04 #@! TO.P,D6,1*
G04 #@! TO.N,Row2*
X115824000Y89916000D03*
G04 #@! TD*
D18*
G04 #@! TO.P,D5,2*
G04 #@! TO.N,Net-(D5-Pad2)*
X97028000Y97536000D03*
D16*
G04 #@! TO.P,D5,1*
G04 #@! TO.N,Row2*
X97028000Y89916000D03*
G04 #@! TD*
D18*
G04 #@! TO.P,D4,2*
G04 #@! TO.N,Net-(D4-Pad2)*
X77724000Y97536000D03*
D16*
G04 #@! TO.P,D4,1*
G04 #@! TO.N,Row1*
X77724000Y89916000D03*
G04 #@! TD*
D18*
G04 #@! TO.P,D3,2*
G04 #@! TO.N,Net-(D3-Pad2)*
X58928000Y97536000D03*
D16*
G04 #@! TO.P,D3,1*
G04 #@! TO.N,Row1*
X58928000Y89916000D03*
G04 #@! TD*
D18*
G04 #@! TO.P,D2,2*
G04 #@! TO.N,Net-(D2-Pad2)*
X36068000Y84328000D03*
D16*
G04 #@! TO.P,D2,1*
G04 #@! TO.N,Row0*
X28448000Y84328000D03*
G04 #@! TD*
D18*
G04 #@! TO.P,D1,2*
G04 #@! TO.N,Net-(D1-Pad2)*
X9652000Y84328000D03*
D16*
G04 #@! TO.P,D1,1*
G04 #@! TO.N,Row0*
X17272000Y84328000D03*
G04 #@! TD*
D19*
G04 #@! TO.N,Row1*
X78232000Y86178001D03*
G04 #@! TO.N,Row2*
X115824000Y86868000D03*
G04 #@! TO.N,Row3*
X154432000Y87376000D03*
G04 #@! TO.N,Row5*
X200660000Y61468000D03*
X205232000Y61468000D03*
G04 #@! TO.N,Row6*
X200152000Y62992000D03*
G04 #@! TO.N,Col0*
X253492000Y88900000D03*
G04 #@! TO.N,Col2*
X197612000Y75692000D03*
X201168000Y75692000D03*
G04 #@! TO.N,Col8*
X204724000Y43688000D03*
X208280000Y43688000D03*
G04 #@! TO.N,Col1*
X42672000Y93472000D03*
X43180000Y97028000D03*
X188976000Y87376000D03*
G04 #@! TO.N,Ground*
X61976000Y68580000D03*
X66040000Y68580000D03*
X100584000Y68580000D03*
X104140000Y68580000D03*
X136652000Y68580000D03*
X141224000Y68580000D03*
X157480000Y68580000D03*
X160528000Y68580000D03*
G04 #@! TD*
D20*
G04 #@! TO.N,Net-(D59-Pad2)*
X136336000Y21336000D02*
X136336000Y14924000D01*
X133096000Y11684000D02*
X124460000Y11684000D01*
X136336000Y14924000D02*
X133096000Y11684000D01*
X136336000Y21336000D02*
X148240000Y21336000D01*
G04 #@! TO.N,Row0*
X17272000Y76679974D02*
X19430901Y74521073D01*
X17272000Y84328000D02*
X17272000Y76679974D01*
X19430901Y74521073D02*
X19430901Y72009099D01*
X21812651Y55469073D02*
X21812651Y53308651D01*
X19430901Y57850823D02*
X21812651Y55469073D01*
X23305302Y51816000D02*
X27940000Y51816000D01*
X21812651Y53308651D02*
X23305302Y51816000D01*
X26574901Y36420073D02*
X26574901Y34194901D01*
X23305302Y51816000D02*
X23305302Y39689672D01*
X23305302Y39689672D02*
X26574901Y36420073D01*
X27749802Y33020000D02*
X32512000Y33020000D01*
X26574901Y34194901D02*
X27749802Y33020000D01*
X27749802Y33020000D02*
X27749802Y14541802D01*
X26924000Y13716000D02*
X25400000Y13716000D01*
X27749802Y14541802D02*
X26924000Y13716000D01*
X8636000Y71120000D02*
X8636000Y70612000D01*
X8636000Y70612000D02*
X9652000Y69596000D01*
X9652000Y69596000D02*
X18796000Y69596000D01*
X18796000Y69596000D02*
X19304000Y70104000D01*
X30480000Y82296000D02*
X36576000Y82296000D01*
X44418828Y71120000D02*
X49276000Y71120000D01*
X36576000Y82296000D02*
X43243901Y75628099D01*
X28448000Y84328000D02*
X30480000Y82296000D01*
X43243901Y75628099D02*
X43243901Y72294927D01*
X43243901Y72294927D02*
X44418828Y71120000D01*
X19304000Y70612000D02*
X19430901Y70738901D01*
X19304000Y70104000D02*
X19304000Y70612000D01*
X19430901Y72009099D02*
X19430901Y70738901D01*
X19430901Y70738901D02*
X19430901Y57850823D01*
G04 #@! TO.N,Row1*
X62293901Y74521073D02*
X62293901Y71945901D01*
X58928000Y89916000D02*
X58928000Y77886974D01*
X58928000Y77886974D02*
X62293901Y74521073D01*
X63627802Y70612000D02*
X68580000Y70612000D01*
X62293901Y71945901D02*
X63627802Y70612000D01*
X67564000Y51816000D02*
X73152000Y51816000D01*
X67056000Y52324000D02*
X67564000Y51816000D01*
X67056000Y55427974D02*
X67056000Y52324000D01*
X63627802Y70612000D02*
X63627802Y58856172D01*
X63627802Y58856172D02*
X67056000Y55427974D01*
X73152000Y39848974D02*
X76580901Y36420073D01*
X73152000Y51816000D02*
X73152000Y39848974D01*
X76580901Y36420073D02*
X76580901Y33147099D01*
X76708000Y33020000D02*
X82804000Y33020000D01*
X76580901Y33147099D02*
X76708000Y33020000D01*
X76708000Y33020000D02*
X75184000Y31496000D01*
X75184000Y31496000D02*
X57912000Y31496000D01*
X57912000Y31496000D02*
X51308000Y24892000D01*
X51308000Y15748000D02*
X49276000Y13716000D01*
X51308000Y24892000D02*
X51308000Y15748000D01*
X78232000Y86178001D02*
X77724000Y86686001D01*
X77724000Y86686001D02*
X77724000Y89916000D01*
G04 #@! TO.N,Row2*
X100393901Y74521073D02*
X100393901Y72453901D01*
X97028000Y89916000D02*
X97028000Y77886974D01*
X97028000Y77886974D02*
X100393901Y74521073D01*
X102235802Y70612000D02*
X106680000Y70612000D01*
X102171901Y70675901D02*
X102235802Y70612000D01*
X100393901Y72453901D02*
X102171901Y70675901D01*
X106172000Y51816000D02*
X111252000Y51816000D01*
X105156000Y52832000D02*
X106172000Y51816000D01*
X102171901Y57848099D02*
X103345099Y56674901D01*
X102171901Y70675901D02*
X102171901Y57848099D01*
X103345099Y56674901D02*
X103917073Y56674901D01*
X103917073Y56674901D02*
X105156000Y55435974D01*
X105156000Y55435974D02*
X105156000Y52832000D01*
X111252000Y51816000D02*
X111252000Y39848974D01*
X114680901Y36420073D02*
X114680901Y33655099D01*
X111252000Y39848974D02*
X114680901Y36420073D01*
X115316000Y33020000D02*
X120904000Y33020000D01*
X114680901Y33655099D02*
X115316000Y33020000D01*
X115316000Y33020000D02*
X115316000Y22352000D01*
X106680000Y13716000D02*
X73152000Y13716000D01*
X115316000Y22352000D02*
X106680000Y13716000D01*
X115824000Y86868000D02*
X115824000Y89916000D01*
G04 #@! TO.N,Row3*
X135128000Y77886974D02*
X138684000Y74330974D01*
X135128000Y89916000D02*
X135128000Y77886974D01*
X138684000Y74330974D02*
X138684000Y71628000D01*
X139192000Y71120000D02*
X144780000Y71120000D01*
X138684000Y71628000D02*
X139192000Y71120000D01*
X139192000Y71120000D02*
X139192000Y59436000D01*
X142025073Y56674901D02*
X143256000Y55443974D01*
X139192000Y59436000D02*
X141953099Y56674901D01*
X141953099Y56674901D02*
X142025073Y56674901D01*
X143256000Y55443974D02*
X143256000Y53848000D01*
X145288000Y51816000D02*
X149352000Y51816000D01*
X143256000Y53848000D02*
X145288000Y51816000D01*
X145288000Y43913974D02*
X152781901Y36420073D01*
X145288000Y51816000D02*
X145288000Y43913974D01*
X152781901Y36420073D02*
X152781901Y34162099D01*
X153924000Y33020000D02*
X159004000Y33020000D01*
X152781901Y34162099D02*
X153924000Y33020000D01*
X124460000Y19304000D02*
X135636000Y30480000D01*
X149099802Y30480000D02*
X152781901Y34162099D01*
X135636000Y30480000D02*
X149099802Y30480000D01*
X153924000Y87884000D02*
X153924000Y89916000D01*
X154432000Y87376000D02*
X153924000Y87884000D01*
G04 #@! TO.N,Row4*
X192024000Y89916000D02*
X193040000Y89916000D01*
X193040000Y89916000D02*
X199136000Y83820000D01*
X199136000Y83820000D02*
X199136000Y76200000D01*
X201676000Y73660000D02*
X201676000Y70612000D01*
X199136000Y76200000D02*
X201676000Y73660000D01*
X204724000Y53848000D02*
X206756000Y51816000D01*
X204724000Y59802998D02*
X204724000Y53848000D01*
X201676000Y70612000D02*
X201676000Y62850998D01*
X201676000Y62850998D02*
X204724000Y59802998D01*
X206756000Y51816000D02*
X206756000Y37881974D01*
X205294099Y36420073D02*
X205294099Y33973901D01*
X206756000Y37881974D02*
X205294099Y36420073D01*
X203832198Y32512000D02*
X197104000Y32512000D01*
X205294099Y33973901D02*
X203832198Y32512000D01*
X215900000Y15748000D02*
X213868000Y13716000D01*
X215900000Y33020000D02*
X215900000Y15748000D01*
X189738000Y66040000D02*
X191008000Y64770000D01*
X193757998Y51816000D02*
X206756000Y51816000D01*
X191008000Y54565998D02*
X193757998Y51816000D01*
X191008000Y64770000D02*
X191008000Y54565998D01*
G04 #@! TO.N,Row5*
X211328000Y77890974D02*
X214697901Y74521073D01*
X211328000Y89916000D02*
X211328000Y77890974D01*
X214697901Y74521073D02*
X214697901Y72830099D01*
X214697901Y72830099D02*
X217424000Y70104000D01*
X219964000Y70104000D02*
X220980000Y71120000D01*
X217424000Y70104000D02*
X219964000Y70104000D01*
X217424000Y57491974D02*
X219456000Y55459974D01*
X217424000Y70104000D02*
X217424000Y57491974D01*
X219456000Y55459974D02*
X219456000Y53848000D01*
X221488000Y51816000D02*
X225552000Y51816000D01*
X219456000Y53848000D02*
X221488000Y51816000D01*
X225552000Y39849974D02*
X228981901Y36420073D01*
X225552000Y51816000D02*
X225552000Y39849974D01*
X228981901Y36420073D02*
X228981901Y33654099D01*
X229616000Y33020000D02*
X235204000Y33020000D01*
X228981901Y33654099D02*
X229616000Y33020000D01*
X235204000Y33020000D02*
X235204000Y18796000D01*
X235204000Y18796000D02*
X238252000Y15748000D01*
X238252000Y14224000D02*
X237744000Y13716000D01*
X238252000Y15748000D02*
X238252000Y14224000D01*
X192278000Y66040000D02*
X192278000Y61722000D01*
X192278000Y61722000D02*
X192532000Y61468000D01*
X192532000Y61468000D02*
X200660000Y61468000D01*
X213447974Y61468000D02*
X217424000Y57491974D01*
X205232000Y61468000D02*
X213447974Y61468000D01*
G04 #@! TO.N,Row6*
X249428000Y89916000D02*
X249428000Y87376000D01*
X249428000Y87376000D02*
X257556000Y79248000D01*
X259588000Y79248000D02*
X262128000Y76708000D01*
X257556000Y79248000D02*
X259588000Y79248000D01*
X244348000Y65024000D02*
X249428000Y65024000D01*
X249428000Y65024000D02*
X254508000Y59944000D01*
X254508000Y59944000D02*
X256032000Y59944000D01*
X258572000Y57404000D02*
X258572000Y52324000D01*
X256032000Y59944000D02*
X258572000Y57404000D01*
X250987998Y70612000D02*
X257083998Y76708000D01*
X247904000Y70612000D02*
X250987998Y70612000D01*
X244348000Y65024000D02*
X244348000Y67056000D01*
X257083998Y76708000D02*
X262128000Y76708000D01*
X244348000Y67056000D02*
X247904000Y70612000D01*
X258572000Y52324000D02*
X264160000Y52324000D01*
X264160000Y52324000D02*
X269240000Y47244000D01*
X269240000Y47244000D02*
X269240000Y37084000D01*
X270764000Y35560000D02*
X270764000Y32512000D01*
X269240000Y37084000D02*
X270764000Y35560000D01*
X270764000Y32512000D02*
X270764000Y29972000D01*
X270764000Y29972000D02*
X263652000Y22860000D01*
X263652000Y22860000D02*
X263652000Y13716000D01*
X263652000Y13716000D02*
X261620000Y13716000D01*
X263652000Y13716000D02*
X265684000Y13716000D01*
X194818000Y66040000D02*
X194818000Y63246000D01*
X194818000Y63246000D02*
X199898000Y63246000D01*
X199898000Y63246000D02*
X200152000Y62992000D01*
G04 #@! TO.N,Col7*
X195072000Y39624000D02*
X196849000Y37847000D01*
X195072000Y40640000D02*
X195072000Y39624000D01*
X196849000Y37847000D02*
X203803000Y37847000D01*
X184658000Y63246000D02*
X186944000Y60960000D01*
X186944000Y60960000D02*
X188976000Y60960000D01*
X184658000Y66040000D02*
X184658000Y63246000D01*
X189484000Y46228000D02*
X195072000Y40640000D01*
X188976000Y60960000D02*
X189484000Y60452000D01*
X189484000Y60452000D02*
X189484000Y46228000D01*
G04 #@! TO.N,Col0*
X253492000Y88900000D02*
X265684000Y88900000D01*
X265684000Y88900000D02*
X266700000Y89916000D01*
X266700000Y94010000D02*
X265714000Y94996000D01*
X266700000Y89916000D02*
X266700000Y94010000D01*
X265714000Y94996000D02*
X275240000Y94996000D01*
G04 #@! TO.N,Col4*
X197358000Y81280000D02*
X195326000Y83312000D01*
X195326000Y83312000D02*
X164592000Y83312000D01*
X164592000Y83312000D02*
X160528000Y79248000D01*
X160528000Y79248000D02*
X160528000Y75692000D01*
X160528000Y75692000D02*
X159004000Y74168000D01*
X159004000Y74168000D02*
X159004000Y58928000D01*
X161036000Y56896000D02*
X175210000Y56896000D01*
X159004000Y58928000D02*
X161036000Y56896000D01*
G04 #@! TO.N,Col2*
X192278000Y79932998D02*
X194056000Y78154998D01*
X192278000Y81280000D02*
X192278000Y79932998D01*
X194056000Y78154998D02*
X194056000Y76200000D01*
X194056000Y76200000D02*
X194564000Y75692000D01*
X194564000Y75692000D02*
X197612000Y75692000D01*
X208313000Y75692000D02*
X208569000Y75948000D01*
X201168000Y75692000D02*
X208313000Y75692000D01*
G04 #@! TO.N,Col6*
X182118000Y66040000D02*
X182118000Y63754000D01*
X185300001Y38394001D02*
X184753000Y37847000D01*
X185300001Y60571999D02*
X185300001Y38394001D01*
X182118000Y63754000D02*
X185300001Y60571999D01*
G04 #@! TO.N,Col8*
X187198000Y66040000D02*
X189992000Y63246000D01*
X189992000Y63246000D02*
X189992000Y47244000D01*
X189992000Y47244000D02*
X193548000Y43688000D01*
X193548000Y43688000D02*
X204724000Y43688000D01*
X209931901Y27305901D02*
X201422000Y18796000D01*
X209931901Y36420073D02*
X209931901Y27305901D01*
X208280000Y38071974D02*
X209931901Y36420073D01*
X208280000Y43688000D02*
X208280000Y38071974D01*
G04 #@! TO.N,Col1*
X42672000Y93472000D02*
X43180000Y93980000D01*
X43180000Y93980000D02*
X43180000Y97028000D01*
X188976000Y87376000D02*
X186944000Y89408000D01*
X186944000Y89408000D02*
X186944000Y93980000D01*
X185928000Y94996000D02*
X179990000Y94996000D01*
X186944000Y93980000D02*
X185928000Y94996000D01*
G04 #@! TO.N,Ground*
X174498000Y81280000D02*
X177038000Y81280000D01*
X174498000Y81280000D02*
X174498000Y76962000D01*
X171960099Y66042099D02*
X171958000Y66040000D01*
X171960099Y74424099D02*
X171960099Y66042099D01*
X174498000Y76962000D02*
X171960099Y74424099D01*
X17444000Y94936000D02*
X17720000Y94936000D01*
X17444000Y100436000D02*
X26244000Y100436000D01*
X17444000Y100436000D02*
X17444000Y94936000D01*
X26244000Y100436000D02*
X26244000Y94936000D01*
X23444000Y94936000D02*
X26244000Y94936000D01*
X31496000Y70104000D02*
X33020000Y68580000D01*
X33020000Y68580000D02*
X61976000Y68580000D01*
X66040000Y68580000D02*
X100584000Y68580000D01*
X104140000Y68580000D02*
X136652000Y68580000D01*
X141224000Y68580000D02*
X157480000Y68580000D01*
X169418000Y68580000D02*
X171958000Y66040000D01*
X160528000Y68580000D02*
X169418000Y68580000D01*
X23444000Y94936000D02*
X23444000Y85776000D01*
X23444000Y85776000D02*
X31496000Y77724000D01*
X31496000Y77724000D02*
X31496000Y72644000D01*
X31496000Y72644000D02*
X31496000Y72136000D01*
X31496000Y70104000D02*
X31496000Y72136000D01*
G04 #@! TO.N,Net-(J1-Pad4)*
X22644000Y94936000D02*
X22644000Y85939590D01*
X30226000Y74293590D02*
X29907795Y74611795D01*
X30226000Y72136000D02*
X30226000Y74293590D01*
X22644000Y85939590D02*
X29907795Y78675795D01*
X29907795Y78675795D02*
X29907795Y74740205D01*
X30226000Y74422000D02*
X30226000Y72136000D01*
X29907795Y74740205D02*
X30226000Y74422000D01*
G04 #@! TO.N,Net-(J1-Pad3)*
X21844000Y86103180D02*
X21844000Y94936000D01*
X28956000Y72136000D02*
X28956000Y78991180D01*
X28956000Y78991180D02*
X21844000Y86103180D01*
G04 #@! TO.N,Net-(J1-Pad2)*
X21044000Y86266770D02*
X21044000Y94936000D01*
X27686000Y79624770D02*
X21044000Y86266770D01*
X27686000Y72136000D02*
X27686000Y76454000D01*
X27686000Y76200000D02*
X27686000Y76454000D01*
X27686000Y76454000D02*
X27686000Y79624770D01*
G04 #@! TO.N,Net-(J1-Pad1)*
X20244000Y86430360D02*
X20244000Y94936000D01*
X26416000Y72136000D02*
X26416000Y80258360D01*
X26416000Y80258360D02*
X20244000Y86430360D01*
G04 #@! TD*
M02*
